<svg width="184" height="183" viewBox="0 0 184 183" fill="none" xmlns="http://www.w3.org/2000/svg">
<g clip-path="url(#clip0_604_221)">
<mask id="mask0_604_221" style="mask-type:alpha" maskUnits="userSpaceOnUse" x="-16" y="-26" width="150" height="221">
<path d="M63.7292 173.972L124.403 72.7723C150.444 29.337 119.136 -25.8878 68.4709 -25.8878H50.0194C14.0083 -25.8878 -15.1844 3.28792 -15.1844 39.278V152.152C-15.1844 175.599 3.83313 194.605 27.2925 194.605C42.2221 194.605 56.0556 186.772 63.7292 173.972Z" fill="#D2E1EC"/>
</mask>
<g mask="url(#mask0_604_221)">
<path d="M63.7292 173.972L124.403 72.7723C150.444 29.337 119.136 -25.8878 68.4709 -25.8878H50.0194C14.0083 -25.8878 -15.1844 3.28792 -15.1844 39.278V152.152C-15.1844 175.599 3.83313 194.605 27.2925 194.605C42.2221 194.605 56.0556 186.772 63.7292 173.972Z" fill="url(#paint0_linear_604_221)" fill-opacity="0.34"/>
<path d="M-3.57628e-07 17C-3.57628e-07 26.3888 7.61124 34 17 34V34C26.3888 34 34 26.3888 34 17V17C34 7.61124 26.3888 -3.57628e-07 17 -3.57628e-07H-3.57628e-07V17Z" fill="#0F90D1"/>
<path d="M-4.74239e-07 9.00017C-4.74239e-07 13.9706 4.02943 18 9.00017 18V18C13.9706 18 18 13.9706 18 9.00017V9.00017C18 4.02943 13.9706 -4.74239e-07 9.00017 -4.74239e-07H-4.74239e-07V9.00017Z" fill="#6759AE"/>
</g>
</g>
<defs>
<linearGradient id="paint0_linear_604_221" x1="59.2955" y1="-25.8878" x2="59.2955" y2="194.605" gradientUnits="userSpaceOnUse">
<stop stop-color="#0F90D1"/>
<stop offset="1" stop-color="#0F90D1" stop-opacity="0"/>
</linearGradient>
<clipPath id="clip0_604_221">
<rect width="184" height="183" fill="white"/>
</clipPath>
</defs>
</svg>
