<svg width="41" height="84" viewBox="0 0 41 84" fill="none" xmlns="http://www.w3.org/2000/svg">
<path d="M41 56C25.5362 56 13 68.5362 13 84H41V56Z" fill="#1DAACC"/>
<path d="M13 -2.38419e-07V28C13 43.4638 25.5362 56 41 56V56V28C41 12.5362 28.4638 -2.38419e-07 13 -2.38419e-07V-2.38419e-07Z" fill="#0F90D1"/>
<path d="M27 28V41.9294C27 49.7003 33.2681 56 41 56V56V42.0706C41 34.2997 34.7319 28 27 28V28Z" fill="#6759AE"/>
<path opacity="0.32" d="M0 57.5C0 53.9103 2.91027 51 6.5 51V51C10.0897 51 13 53.9103 13 57.5V57.5C13 61.0897 10.0897 64 6.5 64V64C2.91027 64 0 61.0897 0 57.5V57.5Z" fill="#F0F1F1"/>
</svg>
