<svg id="Layer_1" data-name="Layer 1" xmlns="http://www.w3.org/2000/svg" xmlns:xlink="http://www.w3.org/1999/xlink" viewBox="0 0 895.05 181.79">
  <defs>
    <style>
      .cls-1 {
        fill: #fff;
      }
    </style>
  </defs>
  <title>Persuratan Logo-09</title>
  <g>
    <path class="cls-1" d="M249,197V158.2c0-.56,0-1.12,0-1.68,0-.9.35-1.35,1.28-1.3.47,0,.95,0,1.43,0,8.48,0,16.95-.06,25.42,0,5.84.06,11.65.51,17.18,2.7,8.86,3.52,13.64,10.11,14.88,19.48a35.9,35.9,0,0,1-.78,13.55C305.8,201.2,299,207.17,289,209.82c-4.05,1.07-8.21,1.14-12.35,1.32-1.28.06-2.56,0-3.84,0-.92,0-1.3.42-1.26,1.31,0,.56,0,1.12,0,1.68q0,11.15,0,22.3c0,2.24,0,2.26-2.21,2.26q-9,0-18,0c-2.35,0-2.37,0-2.37-2.33ZM271.53,183v5.51c0,4.2,0,4.2,4.15,4.13,7.23-.12,11.36-4.65,10.83-11.87a7.1,7.1,0,0,0-6.16-6.9,42.77,42.77,0,0,0-7.15-.41c-1.23,0-1.72.38-1.69,1.64C271.58,177.71,271.53,180.35,271.53,183Z" transform="translate(-10.75 -58.06)"/>
    <path class="cls-1" d="M573.5,206.36v29.52c0,.56,0,1.12,0,1.68,0,.81-.37,1.14-1.16,1.14H557.47c-.8,0-1.08-.46-1.3-1.13-.61-1.82-1.24-3.64-1.91-5.43s-1.27-1.91-2.4-.45c-4.11,5.32-9.7,7.58-16.22,8a31.72,31.72,0,0,1-8.81-.48c-8.59-1.83-13.63-7.22-15.64-15.62a34,34,0,0,1-.8-7.85c0-13,0-26.08,0-39.11,0-.16,0-.32,0-.48,0-2.14,0-2.17,2.13-2.17,6.07,0,12.15,0,18.23,0h.72c.88,0,1.36.32,1.31,1.26,0,.56,0,1.12,0,1.68q0,15.82,0,31.67a28.16,28.16,0,0,0,.8,7.6c1.06,3.88,2.86,5.73,6.28,5.94s6.65-.87,8.58-4.15a17.27,17.27,0,0,0,2-6.35,52.55,52.55,0,0,0,.59-8.12c0-8.48,0-17,0-25.44v-1.44c0-2.64,0-2.65,2.55-2.65h17.28l1.44,0c.76,0,1.19.36,1.18,1.16,0,.64,0,1.28,0,1.92Z" transform="translate(-10.75 -58.06)"/>
    <path class="cls-1" d="M842.81,206.29V177c0-.48,0-1,0-1.44-.09-1.08.25-1.61,1.46-1.6q7,.06,13.91,0a1.74,1.74,0,0,1,1.93,1.38c.58,1.82,1.23,3.63,1.9,5.42.59,1.57,1.25,1.69,2.27.33,4.16-5.6,10.06-7.61,16.67-8.14a28.71,28.71,0,0,1,9,.69c8.42,2.06,13.28,7.55,15.18,15.84a26.37,26.37,0,0,1,.62,5.95q0,20.52,0,41c0,2.21,0,2.23-2.21,2.23q-8.88,0-17.76,0c-2.22,0-2.24,0-2.24-2.21q0-16.31,0-32.63a29.4,29.4,0,0,0-.86-7.36c-.74-2.86-2.1-5.31-5.32-5.81-3.59-.55-6.89.14-9.15,3.35-2.07,2.92-2.5,6.35-2.84,9.78A143.68,143.68,0,0,0,865,218.2q0,9.24,0,18.48c0,2,0,2-2,2q-9.12,0-18.23,0c-2,0-2,0-2-2.18Z" transform="translate(-10.75 -58.06)"/>
    <path class="cls-1" d="M681.32,230l-2.9,3.05a21,21,0,0,1-14.7,6.61,32.88,32.88,0,0,1-9.29-.35c-7-1.57-11.39-5.82-13.37-12.64a27.58,27.58,0,0,1-.63-11.88,16.41,16.41,0,0,1,9.2-12.68,39.67,39.67,0,0,1,13-3.78,94.35,94.35,0,0,1,10.76-.56c.8,0,1.6,0,2.4-.07,3.07-.19,3.48-.77,2.73-3.82s-3-4.88-6.43-5.12A28,28,0,0,0,662.9,190a57.91,57.91,0,0,0-8.35,3c-1,.47-1.66.51-2.17-.75-1.61-3.91-3.36-7.77-5-11.66-.76-1.8-.72-1.87,1.06-2.66a56.62,56.62,0,0,1,17.09-4.42,70.43,70.43,0,0,1,12-.45c4.83.27,9.51,1.17,13.72,3.76A20,20,0,0,1,700.76,191a33,33,0,0,1,.46,6q0,19.42,0,38.85c0,.56,0,1.12,0,1.68.06,1-.43,1.24-1.31,1.24-4.32,0-8.63-.05-12.95,0a1.94,1.94,0,0,1-2-1.38C683.84,235,682.64,232.64,681.32,230ZM679,213.27c0-.8,0-1.59,0-2.39,0-.53-.22-1-.82-1-4,.09-8-.09-11.7,1.86a7.24,7.24,0,0,0-3.33,8.64,4.66,4.66,0,0,0,3.47,3.32,10.08,10.08,0,0,0,9.38-2.23C678.59,219.32,679.13,216.41,679,213.27Z" transform="translate(-10.75 -58.06)"/>
    <path class="cls-1" d="M807.51,230.26c-.83.89-1.68,1.82-2.55,2.74A21.18,21.18,0,0,1,790,239.67a34.34,34.34,0,0,1-8.6-.22c-7.45-1.51-12.18-6-14.08-13.38a26.85,26.85,0,0,1-.3-12.35,16.26,16.26,0,0,1,7.89-11c4.48-2.68,9.43-3.8,14.55-4.46,4.22-.56,8.46-.4,12.69-.59,3.44-.17,3.57-.34,2.8-3.63s-2.9-5.09-6.47-5.32a31,31,0,0,0-10.84,1.67,53.8,53.8,0,0,0-7,2.58c-.93.42-1.4.24-1.81-.73-1.72-4.05-3.47-8.08-5.3-12.07-.54-1.18-.23-1.69.86-2.2a52.53,52.53,0,0,1,13.74-4.09,77.49,77.49,0,0,1,15.29-1,33.08,33.08,0,0,1,10.09,1.86,20.49,20.49,0,0,1,13.92,18.86c.07,1.36.09,2.72.09,4.08v38.62c0,2.34,0,2.35-2.35,2.35-3.68,0-7.37-.1-11,.05a2.76,2.76,0,0,1-3.07-2c-.73-1.77-1.67-3.45-2.55-5.16C808.34,231.14,808.23,230.54,807.51,230.26Zm-2.11-16.58c0-.94,0-1.82,0-2.69,0-.65-.22-1.1-.94-1.09-3.5.09-7,0-10.37,1.33-3.66,1.4-5.34,4.66-4.56,8.66a4.71,4.71,0,0,0,3.74,3.89,9.81,9.81,0,0,0,6.54-.56C804,221.38,805.7,218.07,805.4,213.68Z" transform="translate(-10.75 -58.06)"/>
    <path class="cls-1" d="M376.77,219.43v11.93c0,4,0,3.95-3.72,5.43a42,42,0,0,1-13.31,2.8c-5.34.29-10.7.52-16-.46-10-1.86-17.83-6.8-22.2-16.36a30.77,30.77,0,0,1-2.68-10.15c-.58-6.8-.48-13.59,1.72-20.17,3.68-11,11.44-17.2,22.79-19a43.32,43.32,0,0,1,18.3.88c11.21,3,17.55,11.2,19,22.48.56,4.47.32,8.94.37,13.41,0,2.11,0,2.14-2.09,2.14H355.17c-4,0-8,0-12,0-2,0-2.23.28-1.8,2.23a10.74,10.74,0,0,0,5.72,7.59,15.13,15.13,0,0,0,6.44,1.67,45.57,45.57,0,0,0,20.58-3.68q1-.42,2-.78C376.25,219.33,376.43,219.4,376.77,219.43Zm-25.93-21.08c2.79,0,5.58,0,8.36,0,1,0,1.37-.38,1.34-1.41a9,9,0,0,0-6.14-8.31c-6.15-1.74-11.61,1.22-12.66,8.24-.18,1.22.35,1.51,1.46,1.49C345.74,198.31,348.29,198.35,350.84,198.35Z" transform="translate(-10.75 -58.06)"/>
    <path class="cls-1" d="M581.73,66.72a17.76,17.76,0,0,0-3.72-.88c-3.37-.27-5.46,1.4-5.76,4.81-.16,1.75-.06,3.52-.13,5.28,0,.78.25,1.07,1,1,1.88,0,3.76,0,5.64,0,1.3,0,1.32,0,1.33,1.32,0,1.75,0,3.51,0,5.27,0,.78-.26,1.08-1,1.07-1.94,0-3.88,0-5.82,0-.87,0-1.17.3-1.16,1.16,0,3.09,0,6.19,0,9.28V116c0,.43,0,.85,0,1.28s-.16.81-.72.81H563c-.45,0-.64-.27-.63-.7s0-.85,0-1.27V86.6c0-2,.25-2-1.94-2-4,0-8,0-12,0-1.56,0-1.58,0-1.58,1.64q0,14.83,0,29.66a5.53,5.53,0,0,1-.18,2.13c-2.84,0-5.74,0-8.64,0-.67,0-.82-.34-.79-.91s0-.85,0-1.27V86.22c0-1.58,0-1.58-1.61-1.6h-.37c-1.12-.11-2.59.51-3.3-.28s-.16-2.2-.21-3.34c0-.73,0-1.46,0-2.19,0-1.44,0-1.44,1.53-1.54.73,0,1.46-.07,2.18-.14,2.16-.22,1.74-.19,1.78-1.89a32.09,32.09,0,0,1,.29-5.62c1.17-6,4.41-9.3,10.38-10.4a20.92,20.92,0,0,1,10.41.73c1.2.39,1.2.42.89,1.66-.39,1.59-.78,3.17-1.2,4.75-.31,1.18-.33,1.19-1.59.8a11.73,11.73,0,0,0-3.94-.54,5.11,5.11,0,0,0-5.32,4.27,22.59,22.59,0,0,0-.31,5.26c0,1,.69.81,1.27.81h9.1c1.21,0,2.42,0,3.63,0,1.51,0,1.5,0,1.53-1.47a44,44,0,0,1,.25-6.17c1.11-7,4.79-10.47,11.78-11.15a20.63,20.63,0,0,1,8.07,1c.72.22,1.09.52.81,1.44C582.72,62.54,582.28,64.55,581.73,66.72Z" transform="translate(-10.75 -58.06)"/>
    <path class="cls-1" d="M447.44,218.43c2.48.89,4.55,1.7,6.67,2.36a60.47,60.47,0,0,0,15,2.82,19.13,19.13,0,0,0,5.23-.51,3.07,3.07,0,0,0,2.69-2.41c.26-1.47-.65-2.42-1.71-3.19a22.27,22.27,0,0,0-4.48-2.29c-3.16-1.35-6.36-2.58-9.5-4-3.74-1.68-7.33-3.66-10-6.88a18.55,18.55,0,0,1,6.79-28.62A35.87,35.87,0,0,1,470.5,173a54.56,54.56,0,0,1,25.68,4.73c1.55.67,1.56.7.93,2.24-1.6,3.84-3.24,7.65-4.82,11.5-.42,1-.88,1.29-2,.82a60.91,60.91,0,0,0-12.1-3.79,23.07,23.07,0,0,0-6.21-.27,4.53,4.53,0,0,0-1.83.52,2.27,2.27,0,0,0-.79,3.62,5.92,5.92,0,0,0,2.53,1.76c3.67,1.57,7.35,3.11,11,4.67a50,50,0,0,1,6.41,3.24A16.92,16.92,0,0,1,498,214.86a26.55,26.55,0,0,1-.56,10.46c-1.5,5.48-5.06,9.12-10.08,11.51a28.57,28.57,0,0,1-9.91,2.66c-8,.64-16,.56-23.81-1.34-1.71-.41-3.38-1-5.05-1.49a1.46,1.46,0,0,1-1.16-1.58C447.46,229.65,447.44,224.22,447.44,218.43Z" transform="translate(-10.75 -58.06)"/>
    <path class="cls-1" d="M758.81,220c0,5.23,0,10.1,0,15,0,1.1-.53,1.5-1.44,1.86a35.63,35.63,0,0,1-9.23,2.52c-5.33.62-10.66.86-15.95-.5a15.29,15.29,0,0,1-11.29-10.71,27.47,27.47,0,0,1-1.42-8.48c0-8.24,0-16.48,0-24.72,0-.72,0-1.44,0-2.16,0-2,0-2-2-2-1.44,0-2.88,0-4.32,0-.94,0-1.52-.21-1.5-1.31q.08-3.36,0-6.72a2.19,2.19,0,0,1,1.2-1.92c2.29-1.61,4.54-3.28,6.87-4.83a6.73,6.73,0,0,0,2.66-3.26c1.35-3.41,2.89-6.76,4.26-10.17A2.11,2.11,0,0,1,729,161c3.76.06,7.52,0,11.28,0,1.69,0,1.72.06,1.73,1.77,0,2.8,0,5.6,0,8.4s-.28,2.78,2.67,2.78c3.76,0,7.52,0,11.28,0,1.84,0,1.88,0,1.89,1.86q0,6.48,0,13c0,1.89,0,1.91-2.07,1.92-3.92,0-7.84,0-11.76,0-2,0-2,0-2,2,0,7.75,0,15.51,0,23.27,0,4.22,2.31,6.5,6.93,6.15a30.65,30.65,0,0,0,7.74-1.55C757.26,220.41,757.88,220.26,758.81,220Z" transform="translate(-10.75 -58.06)"/>
    <path class="cls-1" d="M393.53,206.38V177.13c0-.56,0-1.12,0-1.68-.07-1,.28-1.47,1.34-1.47,4.64,0,9.27,0,13.91,0a1.75,1.75,0,0,1,1.87,1.45c.84,2.58,1.72,5.14,2.58,7.72.15.46.26,1,.77,1.13.69.18.94-.43,1.23-.9a23.2,23.2,0,0,1,7-7.15c4.86-3.26,10.17-3.95,15.83-2.88,1.07.2,1.26.74,1.18,1.65-.22,2.31-.39,4.61-.6,6.92-.32,3.5-.64,7-1,10.49-.21,2.21-.29,2.24-2.5,1.93a30.16,30.16,0,0,0-10.25.16,10.41,10.41,0,0,0-8.78,9.72c-.11,1.11-.13,2.23-.13,3.35q0,14,0,28.05c0,.56,0,1.12,0,1.68.06,1-.36,1.5-1.4,1.4h-.47q-9.36,0-18.71,0c-1.8,0-1.84,0-1.84-1.88Q393.51,221.59,393.53,206.38Z" transform="translate(-10.75 -58.06)"/>
    <path class="cls-1" d="M588.81,206.45V177c0-.56,0-1.12,0-1.68,0-.93.41-1.28,1.31-1.28q7.08,0,14.15,0c1,0,1.34.59,1.61,1.43.73,2.28,1.51,4.54,2.28,6.81a10.56,10.56,0,0,0,.59,1.57c.33.62.84.75,1.33.18.36-.42.61-.94.93-1.4a21.9,21.9,0,0,1,13.94-9.4,24.26,24.26,0,0,1,8.58.22c.83.12,1.05.59,1,1.33-.15,1.67-.31,3.34-.47,5-.42,4.37-.89,8.74-1.26,13.11-.17,2.08-.73,1.77-2.12,1.52a33.55,33.55,0,0,0-7.42-.3c-7.67.3-11.92,4.59-12.14,12.27-.1,3.43,0,6.88,0,10.31,0,6.72,0,13.44,0,20.15,0,1.85,0,1.89-1.83,1.9q-9.24,0-18.47,0c-1.92,0-1.95,0-1.95-2Q588.8,221.56,588.81,206.45Z" transform="translate(-10.75 -58.06)"/>
    <path class="cls-1" d="M665.69,100.22H654c-1.46,0-1.56.13-1.24,1.57,1.91,8.79,9.36,11,16.29,9.12a15.81,15.81,0,0,0,4.3-1.92c.61-.39.92-.28,1.25.36q1.15,2.27,2.44,4.46c.37.64.21,1-.37,1.3-7.28,4.25-14.81,5.48-22.73,1.87a16.68,16.68,0,0,1-8.46-8.41,24.64,24.64,0,0,1,.33-22.43,18.33,18.33,0,0,1,22-9.28,14.66,14.66,0,0,1,9.24,8.4c2,4.46,2.23,9.14,1.78,13.91-.09.9-.58,1-1.34,1-3.95,0-7.89,0-11.83,0Zm-13-6.55h14.88c.61,0,1.21,0,1.82,0,1.16,0,1.17,0,1.15-1.24a11.23,11.23,0,0,0-1.46-5.38,6.25,6.25,0,0,0-3.21-2.83C658.27,81.25,652.61,88,652.7,93.67Z" transform="translate(-10.75 -58.06)"/>
    <path class="cls-1" d="M495.82,71.82l.11-.41.21-.44c2-5.83,6.17-9.39,12-11.21a7.23,7.23,0,0,1,4.1-.13c7.43,1.92,11.76,6.83,13.77,14A28.34,28.34,0,0,1,527,81c0,5.94.29,11.88-.22,17.82a24.11,24.11,0,0,1-2.77,9.52,17.86,17.86,0,0,1-12.62,9.24,26.61,26.61,0,0,1-10.63.27c.12-.43.52-.47.85-.56,7.65-2,12-7.14,13.87-14.6a41,41,0,0,0,.89-9.93c0-4.31.13-8.61-.12-12.91a20.18,20.18,0,0,0-.88-5,9,9,0,0,0-7.45-6.6,14.41,14.41,0,0,0-6.84.38,9.46,9.46,0,0,0-4.93,3.83A.75.75,0,0,1,495.82,71.82Z" transform="translate(-10.75 -58.06)"/>
    <path class="cls-1" d="M512.89,105.52c-2.35,6.36-7.08,9.89-13.52,11.4a4.52,4.52,0,0,1-2.16-.1,18.05,18.05,0,0,1-12.81-10.58,27.76,27.76,0,0,1-2.23-10.59,180.35,180.35,0,0,1,.17-18.16,23.33,23.33,0,0,1,2.93-9.84,17.91,17.91,0,0,1,12.61-9,27.66,27.66,0,0,1,10.3-.27c-.06.47-.47.48-.78.55-7.69,2-11.9,7.24-13.76,14.67-1,3.86-.84,7.81-.84,11.75,0,3.33,0,6.66,0,10a19.76,19.76,0,0,0,1.17,6.77,8.55,8.55,0,0,0,6.32,5.7,13.9,13.9,0,0,0,8.22-.39,9.44,9.44,0,0,0,4.41-3.63.69.69,0,0,1,.3.67v0C512.87,104.77,512.91,105.15,512.89,105.52Z" transform="translate(-10.75 -58.06)"/>
    <path class="cls-1" d="M400.17,81.27c0,.64.37.8.58,1.07a13.77,13.77,0,0,1,2,15.16c-2.36,5.39-6.87,7.77-12.58,8a11.6,11.6,0,0,1-5.64-1.15,1.67,1.67,0,0,0-2.23.43,7.33,7.33,0,0,0-2.1,4.13,4.6,4.6,0,0,0,2.81,5,10.63,10.63,0,0,0,4.25.79c3.28,0,6.55,0,9.83,0a23.26,23.26,0,0,1,5.93.72c5.84,1.48,7.44,5.91,6.34,11A11.67,11.67,0,0,1,405,133a19.69,19.69,0,0,1-8.83,4,28.14,28.14,0,0,1-13.31-.47,14.36,14.36,0,0,1-5-2.49,9.45,9.45,0,0,1-2.47-12.38,15.31,15.31,0,0,1,3.23-3.9c.4-.36.82-.71,1.19-1a.89.89,0,0,0-.47-.8c-3.2-2.33-3.91-7.57-.84-11.2a18.53,18.53,0,0,1,1.53-1.54c.88-.81.91-.81.09-1.63a14.35,14.35,0,0,1-3.85-6.88c-2.35-9.52,4.87-19.21,16.39-17.3a42.57,42.57,0,0,0,7,.62h7.46c1.91,0,1.95,0,1.89,1.89,0,1.29,0,1.31-1.32,1.32-2,0-4,0-6,0ZM391,134.47a19.36,19.36,0,0,0,4.73-.48,15.42,15.42,0,0,0,6.8-3.29,9.35,9.35,0,0,0,2.75-3.78c1.51-3.91-.24-7.22-4.33-8.14a25,25,0,0,0-4.88-.43c-3.7-.09-7.42.4-11.07-.31a3.92,3.92,0,0,0-4.15,1.4c-.43.51-.92,1-1.31,1.51-3.34,4.56-2,9.66,3.16,12A20.16,20.16,0,0,0,391,134.47ZM379.61,91.24a11.59,11.59,0,0,0,2.1,6.84,10,10,0,0,0,15.23,1.54c3.31-3.24,4-7.26,3-11.58a10,10,0,0,0-12.06-7.54C382.88,81.5,379.64,85.72,379.61,91.24Z" transform="translate(-10.75 -58.06)"/>
    <path class="cls-1" d="M639,80.79c-1.32,1.77-2.68,3.55-4,5.38-.48.67-.85.68-1.43.17a8.88,8.88,0,0,0-4.33-2.18,9.87,9.87,0,0,0-10.4,4.38,16,16,0,0,0-2.48,10.58,16.35,16.35,0,0,0,1.45,5.78,10.23,10.23,0,0,0,14,5.17,21.5,21.5,0,0,0,3.89-2.43c1.24,2,2.45,3.92,3.64,5.85.42.69-.17,1-.59,1.3a20.18,20.18,0,0,1-8.16,3.8,20.68,20.68,0,0,1-10.59-.4,17.67,17.67,0,0,1-11.9-11.07,25.21,25.21,0,0,1-.43-17.58c3.65-10.79,13-13.69,20-13.5a17.38,17.38,0,0,1,10,3.45A3.75,3.75,0,0,1,639,80.79Z" transform="translate(-10.75 -58.06)"/>
    <path class="cls-1" d="M466.18,113.11c-1.61,1.09-2.89,2-4.21,2.83a19.73,19.73,0,0,1-9.51,3.29,14.05,14.05,0,0,1-6.22-1,9.47,9.47,0,0,1-6.06-8.18c-.63-5,1.14-8.91,5.47-11.59a34.26,34.26,0,0,1,11.76-4.09c2.44-.48,4.91-.8,7.37-1.13.87-.11,1.28-.37,1.22-1.35a18.27,18.27,0,0,0-1.14-6,8,8,0,0,0-7.74-5.3,20,20,0,0,0-10.56,2.85c-.47.27-1,.53-1.4.84-1.76,1.25-1.48.87-2.38-.54s-.84-1.38.43-2.18c4.62-2.91,9.56-4.65,15.11-4.34a10.94,10.94,0,0,1,10.28,7.59,20.38,20.38,0,0,1,1.19,7.13q0,12.36,0,24.74c0,.3,0,.6,0,.91,0,.49-.21.81-.76.78h-.37c-2.22.11-2.21.11-2.31-2.09C466.31,115.3,466.25,114.35,466.18,113.11Zm-.5-17A75.58,75.58,0,0,0,457,97.49a28,28,0,0,0-8.8,3.25,8.29,8.29,0,0,0-4.19,8.42,6.82,6.82,0,0,0,5.12,6.32,12.51,12.51,0,0,0,8.36-.5,29.67,29.67,0,0,0,7.8-4.91,2,2,0,0,0,.68-1.75c0-3.69,0-7.39,0-11.08A1.42,1.42,0,0,0,465.68,96.08Z" transform="translate(-10.75 -58.06)"/>
    <path class="cls-1" d="M352.81,98.72c-4.18,0-8.37,0-12.55,0-1.65,0-1.88-.45-1.72,1.91a19.07,19.07,0,0,0,2,7.3c4.34,8.61,13.06,9.15,18.89,7a17,17,0,0,0,4-2.08c.61-.43,1-.31,1.27.32,1.26,2.51,1.4,2-.94,3.33A20.57,20.57,0,0,1,349.93,119a16.83,16.83,0,0,1-13.38-10.52,25.33,25.33,0,0,1-.1-20.16c2.09-5.08,5.63-8.87,11.1-10.47a16,16,0,0,1,8.43-.29,13.56,13.56,0,0,1,9.56,7.92c1.77,3.92,2.06,8.06,1.88,12.27-.05,1-.63,1-1.34,1C361.65,98.71,357.23,98.72,352.81,98.72Zm-14.17-3.26c.4,0,.81.06,1.22.06q11.19,0,22.38,0c.24,0,.49,0,.73,0,.62,0,.83-.21.82-.85a20.93,20.93,0,0,0-1.41-7.46c-2.53-6.3-8.46-7.56-13.09-6.44C343.18,82.26,338.42,88.88,338.64,95.46Z" transform="translate(-10.75 -58.06)"/>
    <path class="cls-1" d="M596.93,97.63v17.44c0,.49,0,1,0,1.46-.06,1.5-.06,1.52-1.5,1.53H588.7c-1.49,0-1.51,0-1.51-1.46,0-3.27,0-6.54,0-9.81V79.17c0-.43,0-.85,0-1.27,0-.58.18-.93.81-.93,2.67,0,5.33,0,8,0,.75,0,.9.41.9,1,0,1.33,0,2.66,0,4Z" transform="translate(-10.75 -58.06)"/>
    <path class="cls-1" d="M272.06,84.21a44.78,44.78,0,0,1,4.06-3.56,15.86,15.86,0,0,1,11.37-3.44c4.71.44,7.88,2.77,9.43,7.29A24.49,24.49,0,0,1,298,92.38q0,12.11,0,24.2c0,1.75,0,1.75-1.83,1.75-.37,0-.73,0-1.1,0a.75.75,0,0,1-.87-.89c0-.42,0-.84,0-1.27l0-24.38a20.5,20.5,0,0,0-.62-4.67c-1.2-5.09-4.88-7-9.83-6.46a11.53,11.53,0,0,0-5.4,2c-.6.4-1.22.8-1.78,1.26-1.56,1.25-3.38,2.4-4.3,4.12-.79,1.5-.24,3.45-.25,5.2,0,7.7,0,15.41,0,23.11,0,.42,0,.85,0,1.27a.64.64,0,0,1-.65.71h-.18c-2.84.32-2.92.25-2.92-2.63V80c0-2.06.07-2.08,2.16-2,.85,0,1.2.35,1.19,1.19s.06,1.94.12,2.91A5.39,5.39,0,0,0,272.06,84.21Z" transform="translate(-10.75 -58.06)"/>
    <path class="cls-1" d="M317.49,96.06c0,4.06,0,8.12,0,12.18a12.49,12.49,0,0,0,.4,3.23,5.39,5.39,0,0,0,5.33,4.36,11.61,11.61,0,0,0,5.15-.88c.7-.29.95-.12,1.17.56.87,2.67,1,2.12-1.37,2.91a14.69,14.69,0,0,1-5.54.78c-5.05-.33-7.93-2.89-8.73-7.85a27.29,27.29,0,0,1-.37-4.52c0-7.76,0-15.52,0-23.28,0-.42,0-.84,0-1.27,0-.62-.24-.87-.85-.86-1.39,0-2.79,0-4.18,0-1,0-1.23-.33-1.21-1.27,0-1.75,0-1.75,1.81-1.82,1,0,2.06-.06,3.08-.13,1.48-.12,1.49-.14,1.56-1.57.13-3,.24-5.93.38-8.9,0-.44-.17-1.11.5-1.19a3.89,3.89,0,0,1,2.65.17c.37.24.18.79.18,1.2,0,3,0,5.94,0,8.91,0,.94.24,1.26,1.21,1.24,3,0,5.94,0,8.91,0,1.52,0,1.52,0,1.54,1.48,0,.24,0,.48,0,.72.11.87-.24,1.19-1.12,1.17-2-.05-4,0-6,0h-2.73c-2,0-1.8,0-1.8,1.73,0,1.27,0,2.54,0,3.81v9.1Z" transform="translate(-10.75 -58.06)"/>
    <path class="cls-1" d="M422.1,85.15c.43-.64.85-1.28,1.28-1.91a16.26,16.26,0,0,1,4.49-4.45,10.32,10.32,0,0,1,8.2-1.33c1.34.32,1.37.45,1.11,1.74-.42,2.06-.42,2-2.47,1.71a8.82,8.82,0,0,0-7.83,2.5,21.16,21.16,0,0,0-4.69,7.07,5.21,5.21,0,0,0-.25,2.14q0,11.82,0,23.65c0,.42,0,.85,0,1.27,0,1.12-.93.86-1.47.76-.77-.16-1.92.72-2.27-.69a5.37,5.37,0,0,1,0-1.27V80.14c0-2.2.05-2.2,2.23-2.1.87,0,1.16.36,1.16,1.21,0,1.63.12,3.27.19,4.9,0,.3,0,.6.06.89Z" transform="translate(-10.75 -58.06)"/>
    <path class="cls-1" d="M249,98V80c0-2-.19-1.93,2-1.93h.36c1.34,0,1.36,0,1.37,1.45V105c0,3.94,0,7.88,0,11.82,0,1.54,0,1.55-1.62,1.55-2.36,0-2.11.2-2.11-2.17Q249,107.07,249,98Z" transform="translate(-10.75 -58.06)"/>
    <path class="cls-1" d="M592,70c-3.47,0-5.94-2.32-5.93-5.53s2.42-5.5,5.91-5.52,6.06,2.29,6,5.6C598,67.66,595.44,70,592,70Z" transform="translate(-10.75 -58.06)"/>
    <path class="cls-1" d="M251,61.83a3.35,3.35,0,1,1-.05,6.7,3.28,3.28,0,0,1-3.38-3.3A3.23,3.23,0,0,1,251,61.83Z" transform="translate(-10.75 -58.06)"/>
    <path class="cls-1" d="M513.26,104.5a.69.69,0,0,0-.3-.67c.44-.92.56-2,1.4-2.73h0C513.87,102.19,514,103.48,513.26,104.5Z" transform="translate(-10.75 -58.06)"/>
    <path class="cls-1" d="M495.82,71.82a.75.75,0,0,0,.3.68c-.29.7-.59,1.41-1,2.33A5,5,0,0,1,495.82,71.82Z" transform="translate(-10.75 -58.06)"/>
    <path class="cls-1" d="M514.36,101.1c-.09-.66-.33-1.33.24-1.95a2.66,2.66,0,0,1-.22,2Z" transform="translate(-10.75 -58.06)"/>
    <path class="cls-1" d="M597.48,120.65c0-.48,0-1,.49-1.29A1.5,1.5,0,0,1,597.48,120.65Z" transform="translate(-10.75 -58.06)"/>
    <path class="cls-1" d="M496.14,71l-.21.44A.35.35,0,0,1,496.14,71Z" transform="translate(-10.75 -58.06)"/>
    <image width="956" height="954" transform="translate(0 0.12) scale(0.19)" xlink:href="Persuratan%20Logo-02.png"/>
  </g>
</svg>
